<svg width="1011" height="212" viewBox="0 0 1011 212" fill="none" xmlns="http://www.w3.org/2000/svg">
<path d="M95.5432 2H0V97.93H95.5432V2Z" fill="white"/>
<path d="M208.88 2H112.95V97.93H208.88V2Z" fill="white"/>
<path d="M95.5432 115.337H0V210.88H95.5432V115.337Z" fill="white"/>
<path d="M208.88 115.337V210.88H112.95V115.337H208.88ZM141.187 182.642H180.642V143.574H141.187V182.642Z" fill="#4DFF4B"/>
<path d="M910.688 107.356V15.7749H926.536V54.4881L924.359 52.1895C925.891 48.2375 928.391 45.2534 931.86 43.2371C935.408 41.1401 939.522 40.0916 944.199 40.0916C949.039 40.0916 953.313 41.1401 957.023 43.2371C960.814 45.3341 963.758 48.2779 965.855 52.0685C967.952 55.7786 969 60.0935 969 65.0133V107.356H953.152V68.7636C953.152 65.8601 952.587 63.3599 951.458 61.2629C950.329 59.166 948.756 57.5529 946.74 56.4238C944.804 55.214 942.506 54.6091 939.844 54.6091C937.263 54.6091 934.965 55.214 932.948 56.4238C930.932 57.5529 929.359 59.166 928.23 61.2629C927.101 63.3599 926.536 65.8601 926.536 68.7636V107.356H910.688Z" fill="#4DFF4B"/>
<path d="M868.781 108.808C862.249 108.808 856.361 107.316 851.119 104.331C845.957 101.267 841.884 97.1534 838.9 91.9916C835.916 86.7492 834.423 80.8615 834.423 74.3287C834.423 67.7958 835.916 61.9485 838.9 56.7868C841.884 51.625 845.957 47.552 851.119 44.5679C856.361 41.5837 862.249 40.0917 868.781 40.0917C873.459 40.0917 877.815 40.9385 881.847 42.6322C885.88 44.2453 889.348 46.5036 892.251 49.407C895.235 52.2299 897.373 55.6173 898.663 59.5693L884.751 65.6182C883.541 62.3115 881.484 59.6499 878.581 57.6336C875.758 55.6173 872.491 54.6091 868.781 54.6091C865.313 54.6091 862.208 55.456 859.466 57.1497C856.805 58.8434 854.708 61.1823 853.175 64.1665C851.643 67.1506 850.877 70.5783 850.877 74.4497C850.877 78.321 851.643 81.7487 853.175 84.7329C854.708 87.717 856.805 90.0559 859.466 91.7496C862.208 93.4433 865.313 94.2902 868.781 94.2902C872.572 94.2902 875.879 93.282 878.702 91.2657C881.525 89.2494 883.541 86.5475 884.751 83.1601L898.663 89.451C897.373 93.161 895.276 96.5081 892.372 99.4923C889.469 102.396 886.001 104.694 881.968 106.388C877.936 108.001 873.54 108.808 868.781 108.808Z" fill="#4DFF4B"/>
<path d="M794.222 108.808C787.447 108.808 781.519 107.275 776.438 104.21C771.357 101.146 767.405 96.992 764.582 91.7496C761.759 86.5072 760.348 80.7002 760.348 74.3287C760.348 67.7152 761.759 61.8679 764.582 56.7868C767.485 51.625 771.397 47.552 776.317 44.5679C781.317 41.5837 786.882 40.0917 793.012 40.0917C798.174 40.0917 802.69 40.9385 806.561 42.6322C810.513 44.3259 813.86 46.6649 816.603 49.649C819.345 52.6331 821.442 56.0609 822.894 59.9322C824.345 63.7229 825.071 67.8362 825.071 72.272C825.071 73.4012 824.991 74.5706 824.829 75.7804C824.749 76.9902 824.547 78.0387 824.224 78.9259H773.413V66.828H815.272L807.771 72.514C808.497 68.804 808.295 65.4972 807.166 62.5937C806.118 59.6902 804.344 57.3916 801.843 55.6979C799.424 54.0042 796.48 53.1574 793.012 53.1574C789.705 53.1574 786.761 54.0042 784.18 55.6979C781.599 57.311 779.624 59.7306 778.252 62.9567C776.962 66.1021 776.478 69.9331 776.801 74.4497C776.478 78.4823 777.002 82.0713 778.373 85.2168C779.825 88.2816 781.922 90.6608 784.664 92.3545C787.487 94.0482 790.713 94.8951 794.343 94.8951C797.972 94.8951 801.037 94.1289 803.537 92.5965C806.118 91.0641 808.134 89.0074 809.586 86.4266L822.41 92.7175C821.119 95.8629 819.103 98.6454 816.361 101.065C813.619 103.485 810.352 105.38 806.561 106.751C802.851 108.122 798.738 108.808 794.222 108.808Z" fill="#4DFF4B"/>
<path d="M723.246 107.356V31.744H699.897V17.2266H762.806V31.744H739.82V107.356H723.246Z" fill="#4DFF4B"/>
<path d="M634.228 108.808C629.631 108.808 625.639 108.041 622.251 106.509C618.864 104.977 616.243 102.799 614.388 99.9762C612.533 97.0727 611.605 93.7256 611.605 89.9349C611.605 86.3056 612.412 83.0795 614.025 80.2566C615.638 77.3531 618.138 74.9336 621.525 72.9979C624.913 71.0623 629.187 69.6912 634.349 68.8846L655.883 65.3763V77.4741L637.374 80.6196C634.228 81.1841 631.889 82.1923 630.357 83.6441C628.824 85.0958 628.058 86.9911 628.058 89.3301C628.058 91.5883 628.905 93.403 630.599 94.7741C632.373 96.0645 634.551 96.7098 637.132 96.7098C640.438 96.7098 643.342 96.0242 645.842 94.6531C648.423 93.2014 650.399 91.2254 651.77 88.7252C653.222 86.2249 653.948 83.4827 653.948 80.4986V63.5616C653.948 60.7387 652.819 58.3998 650.56 56.5448C648.383 54.6091 645.479 53.6413 641.85 53.6413C638.462 53.6413 635.438 54.5688 632.776 56.4238C630.196 58.1982 628.3 60.5774 627.09 63.5616L614.146 57.2707C615.436 53.8026 617.452 50.8185 620.195 48.3182C623.017 45.7374 626.324 43.721 630.115 42.2693C633.906 40.8176 638.019 40.0917 642.455 40.0917C647.858 40.0917 652.617 41.0998 656.73 43.1161C660.843 45.0518 664.029 47.794 666.288 51.3427C668.626 54.8108 669.796 58.8837 669.796 63.5616V107.356H654.795V96.1049L658.182 95.8629C656.488 98.6857 654.472 101.065 652.133 103.001C649.794 104.856 647.133 106.307 644.148 107.356C641.164 108.324 637.858 108.808 634.228 108.808Z" fill="white"/>
<path d="M542.554 107.356V41.5434H557.434V54.4882L556.224 52.1896C557.757 48.2376 560.257 45.2534 563.725 43.2371C567.274 41.1402 571.387 40.0917 576.065 40.0917C580.904 40.0917 585.178 41.1402 588.888 43.2371C592.679 45.3341 595.623 48.2779 597.72 52.0686C599.817 55.7786 600.865 60.0935 600.865 65.0133V107.356H585.017V68.7637C585.017 65.8602 584.453 63.3599 583.323 61.263C582.194 59.166 580.622 57.553 578.605 56.4238C576.67 55.214 574.371 54.6091 571.709 54.6091C569.129 54.6091 566.83 55.214 564.814 56.4238C562.797 57.553 561.225 59.166 560.096 61.263C558.966 63.3599 558.402 65.8602 558.402 68.7637V107.356H542.554Z" fill="white"/>
<path d="M512.073 107.356V41.5433H527.921V107.356H512.073ZM512.073 34.1636V17.2266H527.921V34.1636H512.073Z" fill="white"/>
<path d="M400.309 107.356V41.5434H415.189V56.7868L413.496 54.2462C414.705 49.4877 417.125 45.939 420.754 43.6001C424.384 41.2611 428.658 40.0917 433.578 40.0917C438.982 40.0917 443.74 41.5031 447.854 44.3259C451.967 47.1488 454.628 50.8588 455.838 55.456L451.362 55.8189C453.378 50.5765 456.403 46.6649 460.435 44.084C464.468 41.4224 469.106 40.0917 474.348 40.0917C479.026 40.0917 483.179 41.1402 486.809 43.2371C490.519 45.3341 493.422 48.2779 495.519 52.0686C497.616 55.7786 498.665 60.0935 498.665 65.0133V107.356H482.816V68.7637C482.816 65.8602 482.292 63.3599 481.244 61.263C480.195 59.166 478.744 57.553 476.889 56.4238C475.034 55.214 472.775 54.6091 470.114 54.6091C467.613 54.6091 465.396 55.214 463.46 56.4238C461.524 57.553 460.032 59.166 458.984 61.263C457.935 63.3599 457.411 65.8602 457.411 68.7637V107.356H441.563V68.7637C441.563 65.8602 441.038 63.3599 439.99 61.263C438.942 59.166 437.449 57.553 435.514 56.4238C433.659 55.214 431.441 54.6091 428.86 54.6091C426.36 54.6091 424.142 55.214 422.206 56.4238C420.27 57.553 418.778 59.166 417.73 61.263C416.681 63.3599 416.157 65.8602 416.157 68.7637V107.356H400.309Z" fill="white"/>
<path d="M352.066 108.807C346.985 108.807 342.549 107.678 338.758 105.42C335.048 103.162 332.185 100.016 330.169 95.9837C328.233 91.9511 327.265 87.233 327.265 81.8292V41.5433H343.113V80.4985C343.113 83.2406 343.638 85.6602 344.686 87.7572C345.815 89.7735 347.388 91.3866 349.404 92.5963C351.501 93.7255 353.84 94.29 356.421 94.29C359.002 94.29 361.301 93.7255 363.317 92.5963C365.333 91.3866 366.906 89.7332 368.035 87.6362C369.164 85.5392 369.729 83.039 369.729 80.1355V41.5433H385.577V107.356H370.576V94.411L371.906 96.7096C370.374 100.742 367.833 103.767 364.285 105.783C360.817 107.799 356.744 108.807 352.066 108.807ZM349.283 29.9293L357.147 9H377.713L364.89 29.9293H349.283Z" fill="white"/>
<path d="M264.239 107.356V17.2266H280.692V92.8383H319.284V107.356H264.239Z" fill="white"/>
<path d="M646.724 203.451C643.652 203.451 640.911 202.879 638.502 201.734C636.092 200.53 634.195 198.903 632.81 196.855C631.424 194.807 630.732 192.458 630.732 189.808C630.732 187.278 631.274 184.989 632.358 182.941C633.442 180.833 635.129 179.056 637.418 177.611C639.706 176.165 642.628 175.141 646.182 174.539L665.155 171.376V177.52L647.808 180.412C644.314 181.014 641.784 182.128 640.218 183.755C638.713 185.381 637.96 187.308 637.96 189.537C637.96 191.705 638.803 193.542 640.489 195.048C642.236 196.554 644.465 197.307 647.175 197.307C650.488 197.307 653.379 196.614 655.849 195.229C658.319 193.783 660.246 191.856 661.631 189.447C663.017 187.037 663.71 184.357 663.71 181.405V169.118C663.71 166.227 662.655 163.877 660.547 162.07C658.439 160.263 655.698 159.36 652.325 159.36C649.374 159.36 646.784 160.113 644.555 161.619C642.327 163.064 640.67 164.962 639.586 167.311L633.442 163.968C634.346 161.92 635.761 160.053 637.689 158.366C639.676 156.679 641.935 155.354 644.465 154.391C646.995 153.367 649.615 152.855 652.325 152.855C655.879 152.855 659.011 153.547 661.722 154.933C664.493 156.318 666.631 158.246 668.137 160.715C669.703 163.124 670.486 165.925 670.486 169.118V202.367H663.71V192.699L664.703 193.693C663.86 195.5 662.535 197.157 660.728 198.662C658.981 200.108 656.903 201.283 654.494 202.186C652.145 203.029 649.555 203.451 646.724 203.451Z" fill="white"/>
<path d="M612.073 202.367V153.939H618.849V202.367H612.073ZM612.073 144.994V135.056H618.849V144.994H612.073Z" fill="white"/>
<path d="M576.295 203.451C572.139 203.451 568.374 202.517 565.001 200.65C561.688 198.722 559.188 196.012 557.502 192.518L558.586 191.525V202.367H551.81V133.971H558.586V164.781L557.502 162.883C559.429 159.811 561.989 157.372 565.182 155.565C568.434 153.758 572.139 152.854 576.295 152.854C580.872 152.854 584.938 153.969 588.492 156.197C592.106 158.366 594.937 161.347 596.985 165.142C599.093 168.937 600.147 173.274 600.147 178.153C600.147 182.971 599.093 187.308 596.985 191.163C594.937 194.958 592.106 197.97 588.492 200.198C584.938 202.367 580.872 203.451 576.295 203.451ZM575.933 196.675C579.186 196.675 582.077 195.861 584.607 194.235C587.197 192.609 589.215 190.41 590.66 187.639C592.166 184.808 592.919 181.646 592.919 178.153C592.919 174.599 592.166 171.437 590.66 168.666C589.215 165.895 587.197 163.697 584.607 162.07C582.077 160.444 579.186 159.631 575.933 159.631C572.681 159.631 569.729 160.444 567.079 162.07C564.489 163.697 562.411 165.925 560.845 168.756C559.339 171.527 558.586 174.659 558.586 178.153C558.586 181.646 559.339 184.808 560.845 187.639C562.411 190.41 564.489 192.609 567.079 194.235C569.729 195.861 572.681 196.675 575.933 196.675Z" fill="white"/>
<path d="M469.753 202.367V153.939H476.529V163.155L475.445 161.799C476.77 158.968 478.728 156.77 481.318 155.204C483.968 153.638 486.859 152.855 489.992 152.855C493.726 152.855 497.099 153.909 500.111 156.017C503.123 158.125 505.261 160.866 506.526 164.239L504.628 164.329C505.833 160.595 507.911 157.764 510.863 155.836C513.874 153.848 517.187 152.855 520.801 152.855C524.054 152.855 527.035 153.638 529.746 155.204C532.517 156.77 534.715 158.938 536.341 161.709C538.028 164.419 538.871 167.491 538.871 170.925V202.367H532.095V173.545C532.095 170.593 531.553 168.094 530.469 166.046C529.445 163.998 528.029 162.432 526.222 161.348C524.415 160.203 522.337 159.631 519.988 159.631C517.699 159.631 515.621 160.203 513.754 161.348C511.887 162.432 510.411 164.028 509.327 166.136C508.242 168.184 507.7 170.654 507.7 173.545V202.367H500.924V173.545C500.924 170.593 500.382 168.094 499.298 166.046C498.274 163.998 496.858 162.432 495.051 161.348C493.244 160.203 491.166 159.631 488.817 159.631C486.468 159.631 484.36 160.203 482.493 161.348C480.686 162.432 479.24 164.028 478.156 166.136C477.072 168.184 476.529 170.654 476.529 173.545V202.367H469.753Z" fill="white"/>
<path d="M433.227 203.451C428.649 203.451 424.493 202.367 420.758 200.198C417.024 197.97 414.042 194.958 411.814 191.163C409.645 187.308 408.561 182.941 408.561 178.062C408.561 173.244 409.645 168.937 411.814 165.142C413.982 161.348 416.903 158.366 420.578 156.198C424.312 153.969 428.528 152.855 433.227 152.855C437.925 152.855 442.111 153.939 445.785 156.107C449.52 158.276 452.441 161.257 454.549 165.052C456.718 168.847 457.802 173.183 457.802 178.062C457.802 183.002 456.688 187.399 454.459 191.254C452.23 195.048 449.249 198.03 445.514 200.198C441.84 202.367 437.744 203.451 433.227 203.451ZM433.227 196.675C436.479 196.675 439.401 195.861 441.991 194.235C444.641 192.609 446.719 190.38 448.225 187.549C449.791 184.718 450.574 181.556 450.574 178.062C450.574 174.569 449.791 171.437 448.225 168.666C446.719 165.895 444.641 163.697 441.991 162.07C439.401 160.444 436.479 159.631 433.227 159.631C429.974 159.631 427.023 160.444 424.372 162.07C421.782 163.697 419.704 165.895 418.138 168.666C416.572 171.437 415.789 174.569 415.789 178.062C415.789 181.556 416.572 184.718 418.138 187.549C419.704 190.38 421.782 192.609 424.372 194.235C427.023 195.861 429.974 196.675 433.227 196.675Z" fill="white"/>
<path d="M389.902 202.367V133.971H396.678V202.367H389.902Z" fill="white"/>
<path d="M353.376 203.451C348.798 203.451 344.642 202.367 340.907 200.198C337.173 197.97 334.191 194.958 331.963 191.163C329.794 187.308 328.71 182.941 328.71 178.062C328.71 173.244 329.794 168.937 331.963 165.142C334.131 161.348 337.052 158.366 340.727 156.198C344.461 153.969 348.678 152.855 353.376 152.855C358.074 152.855 362.26 153.939 365.935 156.107C369.669 158.276 372.59 161.257 374.699 165.052C376.867 168.847 377.951 173.183 377.951 178.062C377.951 183.002 376.837 187.399 374.608 191.254C372.38 195.048 369.398 198.03 365.663 200.198C361.989 202.367 357.893 203.451 353.376 203.451ZM353.376 196.675C356.628 196.675 359.55 195.861 362.14 194.235C364.79 192.609 366.868 190.38 368.374 187.549C369.94 184.718 370.723 181.556 370.723 178.062C370.723 174.569 369.94 171.437 368.374 168.666C366.868 165.895 364.79 163.697 362.14 162.07C359.55 160.444 356.628 159.631 353.376 159.631C350.123 159.631 347.172 160.444 344.521 162.07C341.931 163.697 339.853 165.895 338.287 168.666C336.721 171.437 335.938 174.569 335.938 178.062C335.938 181.556 336.721 184.718 338.287 187.549C339.853 190.38 341.931 192.609 344.521 194.235C347.172 195.861 350.123 196.675 353.376 196.675Z" fill="white"/>
<path d="M292.707 203.451C287.948 203.451 283.582 202.608 279.606 200.921C275.631 199.174 272.167 196.765 269.216 193.693C266.325 190.561 264.066 186.887 262.439 182.67C260.813 178.454 260 173.816 260 168.756C260 163.697 260.813 159.059 262.439 154.842C264.066 150.626 266.325 146.952 269.216 143.819C272.167 140.687 275.631 138.278 279.606 136.591C283.582 134.845 287.948 133.971 292.707 133.971C297.285 133.971 301.381 134.784 304.995 136.411C308.669 138.037 311.741 140.145 314.21 142.735C316.74 145.265 318.547 147.945 319.631 150.776L312.855 153.758C311.169 149.843 308.579 146.711 305.085 144.362C301.652 141.952 297.526 140.747 292.707 140.747C287.768 140.747 283.371 141.922 279.516 144.271C275.661 146.62 272.649 149.903 270.481 154.119C268.312 158.275 267.228 163.154 267.228 168.756C267.228 174.298 268.312 179.177 270.481 183.393C272.649 187.609 275.661 190.892 279.516 193.241C283.371 195.53 287.768 196.675 292.707 196.675C297.526 196.675 301.652 195.5 305.085 193.151C308.579 190.802 311.169 187.67 312.855 183.754L319.631 186.736C318.547 189.507 316.74 192.187 314.21 194.777C311.741 197.307 308.669 199.385 304.995 201.011C301.381 202.638 297.285 203.451 292.707 203.451Z" fill="white"/>
</svg>
